<?xml version="1.0" encoding="UTF-8"?>
<svg width="316" height="316" version="1.1" viewBox="0 0 316 316" xml:space="preserve" xmlns="http://www.w3.org/2000/svg" xmlns:cc="http://creativecommons.org/ns#" xmlns:dc="http://purl.org/dc/elements/1.1/" xmlns:rdf="http://www.w3.org/1999/02/22-rdf-syntax-ns#"><metadata><rdf:RDF><cc:Work rdf:about=""><dc:format>image/svg+xml</dc:format><dc:type rdf:resource="http://purl.org/dc/dcmitype/StillImage"/></cc:Work></rdf:RDF></metadata><g transform="matrix(1.9431 0 0 1.9431 1.1843 1.1842)"><g transform="matrix(1.3333 0 0 -1.3333 111.84 34.667)"><path d="m0 0h-45.458c-1.657 0-3 1.343-3 3s1.343 3 3 3h45.458c1.657 0 3-1.343 3-3s-1.343-3-3-3" fill="#2b2b2a"/></g><g transform="matrix(1.3333 0 0 -1.3333 108.72 21.333)"><path d="m0 0h-41.774c-1.658 0-3 1.343-3 3s1.342 3 3 3h41.774c1.657 0 3-1.343 3-3s-1.343-3-3-3" fill="#2b2b2a"/></g><g transform="matrix(1.3333 0 0 -1.3333 77.575 8.0001)"><path d="m0 0h-8.438c-1.658 0-3 1.343-3 3s1.342 3 3 3h8.438c1.657 0 3-1.343 3-3s-1.343-3-3-3" fill="#2b2b2a"/></g><g transform="matrix(1.3333 0 0 -1.3333 98.505 114.67)"><path d="m0 0h-33.129c-1.657 0-3 1.343-3 3s1.343 3 3 3h33.129c1.657 0 3-1.343 3-3s-1.343-3-3-3" fill="#fcbf00"/></g><g transform="matrix(1.3333 0 0 -1.3333 113.76 101.33)"><path d="m0 0h-40.641c-1.657 0-3 1.343-3 3s1.343 3 3 3h40.641c1.657 0 3-1.343 3-3s-1.343-3-3-3" fill="#fcbf00"/></g><g transform="matrix(1.3333 0 0 -1.3333 100.11 88)"><path d="m0 0h-41.179c-1.657 0-3 1.343-3 3s1.343 3 3 3h41.179c1.657 0 3-1.343 3-3s-1.343-3-3-3" fill="#fcbf00"/></g><g transform="matrix(1.3333 0 0 -1.3333 91.593 74.667)"><path d="m0 0h-37.049c-1.657 0-3 1.343-3 3s1.343 3 3 3h37.049c1.657 0 3-1.343 3-3s-1.343-3-3-3" fill="#e53025"/></g><g transform="matrix(1.3333 0 0 -1.3333 121.55 61.333)"><path d="m0 0h-61.313c-1.657 0-3 1.343-3 3s1.343 3 3 3h61.313c1.657 0 3-1.343 3-3s-1.343-3-3-3" fill="#e53025"/></g><g transform="matrix(1.3333 0 0 -1.3333 118.02 48)"><path d="m0 0h-53.3c-1.657 0-3 1.343-3 3s1.343 3 3 3h53.3c1.657 0 3-1.343 3-3s-1.343-3-3-3" fill="#e53025"/></g><g transform="matrix(1.3333 0 0 -1.3333 4.6387 156.57)"><path d="m0 0h2.596c1.509 0 2.697 0.534 3.563 1.602 0.864 1.067 1.297 2.742 1.297 5.026 0 2.209-0.433 3.797-1.297 4.764-0.866 0.966-2.054 1.449-3.563 1.449h-2.596zm-2.126-3.12c-0.902 0-1.353 0.487-1.353 1.463v16.321c0 0.405 0.119 0.736 0.359 0.995 0.239 0.257 0.57 0.386 0.994 0.386h4.501c1.326 0 2.522-0.193 3.59-0.58 1.068-0.386 1.975-0.967 2.72-1.74 0.746-0.773 1.321-1.749 1.726-2.927s0.608-2.569 0.608-4.17c0-1.583-0.203-2.983-0.608-4.198s-0.98-2.232-1.726-3.051c-0.745-0.819-1.652-1.441-2.72-1.864-1.068-0.424-2.264-0.635-3.59-0.635z" fill="#2b2b2a"/></g><g transform="matrix(1.3333 0 0 -1.3333 26.011 152.26)"><path d="m0 0c-0.792 0.017-1.188 0.589-1.188 1.712 0 0.515 0.088 0.948 0.263 1.298 0.174 0.349 0.492 0.524 0.953 0.524h8.056c0.46 0 0.777-0.175 0.952-0.524 0.175-0.35 0.263-0.783 0.263-1.298 0-1.142-0.423-1.712-1.271-1.712z" fill="#2b2b2a"/></g><g transform="matrix(1.3333 0 0 -1.3333 51.224 158.92)"><path d="m0 0c0-0.423-0.124-0.787-0.373-1.09-0.248-0.304-0.694-0.456-1.339-0.456-1.179 0-1.767 0.515-1.767 1.546v14.664h-4.198c-0.479 0-0.82 0.152-1.022 0.456s-0.303 0.676-0.303 1.118 0.105 0.815 0.317 1.119c0.211 0.304 0.529 0.456 0.953 0.456h12.178c0.424 0 0.741-0.149 0.953-0.443s0.318-0.662 0.318-1.105c0-0.441-0.097-0.819-0.291-1.131-0.193-0.314-0.538-0.47-1.035-0.47h-4.391z" fill="#2b2b2a"/></g><g transform="matrix(1.3333 0 0 -1.3333 63.633 136.98)"><path d="m0 0c0 0.552 0.161 0.947 0.483 1.187 0.322 0.239 0.75 0.359 1.284 0.359 0.498 0 0.906-0.12 1.229-0.359 0.321-0.24 0.483-0.635 0.483-1.187v-16.377c0-0.423-0.119-0.8-0.359-1.132-0.239-0.331-0.69-0.497-1.353-0.497-0.626 0-1.077 0.129-1.354 0.387-0.276 0.257-0.413 0.672-0.413 1.242z" fill="#2b2b2a"/></g><g transform="matrix(1.3333 0 0 -1.3333 84.804 161.35)"><path d="m0 0c-1.491 0-2.739 0.276-3.743 0.828-1.002 0.553-1.803 1.293-2.402 2.223-0.598 0.93-1.022 1.993-1.27 3.19-0.249 1.197-0.373 2.43-0.373 3.7 0 1.344 0.152 2.628 0.456 3.853 0.304 1.224 0.783 2.306 1.436 3.244 0.653 0.94 1.501 1.685 2.541 2.237 1.039 0.553 2.296 0.829 3.769 0.829 1.16 0 2.196-0.212 3.106-0.636 0.912-0.423 1.69-0.956 2.334-1.601 0.294-0.295 0.567-0.626 0.815-0.994 0.249-0.368 0.373-0.736 0.373-1.105 0-0.533-0.18-0.93-0.539-1.187-0.358-0.258-0.741-0.387-1.146-0.387-0.313 0-0.58 0.097-0.801 0.29-0.22 0.194-0.46 0.419-0.717 0.676-0.203 0.203-0.415 0.41-0.636 0.622-0.221 0.211-0.469 0.401-0.745 0.566-0.276 0.166-0.59 0.304-0.94 0.414-0.35 0.111-0.745 0.166-1.187 0.166-0.828 0-1.523-0.184-2.085-0.552s-1.021-0.866-1.381-1.491c-0.358-0.626-0.616-1.353-0.773-2.182-0.157-0.828-0.235-1.694-0.235-2.596 0-0.939 0.078-1.832 0.235-2.679s0.41-1.583 0.76-2.208c0.349-0.627 0.796-1.124 1.339-1.492s1.192-0.553 1.946-0.553c0.443 0 0.829 0.051 1.161 0.152 0.331 0.101 0.63 0.244 0.897 0.429 0.267 0.184 0.516 0.39 0.746 0.621 0.23 0.23 0.455 0.483 0.677 0.759 0.165 0.203 0.368 0.429 0.607 0.677 0.239 0.249 0.543 0.373 0.911 0.373 0.424 0 0.806-0.148 1.146-0.442 0.34-0.295 0.512-0.681 0.512-1.16 0-0.7-0.35-1.427-1.05-2.182-0.313-0.331-0.654-0.644-1.022-0.938-0.369-0.296-0.782-0.553-1.243-0.774-0.46-0.221-0.976-0.391-1.546-0.511-0.571-0.119-1.215-0.179-1.933-0.179" fill="#2b2b2a"/></g><g transform="matrix(1.3333 0 0 -1.3333 99.312 136.98)"><path d="m0 0c0 0.552 0.161 0.947 0.483 1.187 0.322 0.239 0.75 0.359 1.284 0.359 0.498 0 0.906-0.12 1.229-0.359 0.321-0.24 0.483-0.635 0.483-1.187v-6.711l6.242 7.263c0.22 0.258 0.456 0.487 0.704 0.69 0.248 0.202 0.547 0.304 0.897 0.304 0.258 0 0.474-0.041 0.649-0.124s0.345-0.198 0.511-0.345c0.166-0.166 0.299-0.345 0.4-0.539s0.152-0.419 0.152-0.676c0-0.203-0.055-0.425-0.165-0.663-0.111-0.239-0.259-0.461-0.442-0.664l-4.391-5.053 5.578-8.947c0.166-0.258 0.248-0.544 0.248-0.856 0-0.461-0.155-0.856-0.469-1.188-0.313-0.331-0.763-0.497-1.353-0.497-0.386 0-0.709 0.101-0.966 0.304-0.258 0.202-0.489 0.479-0.691 0.828l-4.888 7.844-2.016-2.321v-5.026c0-0.423-0.119-0.8-0.359-1.132-0.239-0.331-0.69-0.497-1.353-0.497-0.626 0-1.077 0.129-1.354 0.387-0.275 0.257-0.413 0.672-0.413 1.242z" fill="#2b2b2a"/></g><g transform="matrix(1.3333 0 0 -1.3333 124.5 160.73)"><path d="m0 0c-0.902 0-1.353 0.488-1.353 1.464v16.321c0 0.405 0.119 0.735 0.359 0.994 0.239 0.258 0.57 0.387 0.994 0.387h9.224c0.92 0 1.38-0.535 1.38-1.602 0-0.479-0.097-0.866-0.29-1.16-0.193-0.295-0.529-0.442-1.008-0.442h-7.18v-4.695h6.49c0.884 0 1.326-0.507 1.326-1.518 0-0.479-0.097-0.875-0.29-1.188-0.194-0.313-0.539-0.469-1.036-0.469h-6.49v-4.833h7.319c0.386 0 0.676-0.148 0.869-0.442 0.193-0.295 0.29-0.691 0.29-1.188 0-0.479-0.097-0.869-0.29-1.173s-0.538-0.456-1.036-0.456z" fill="#2b2b2a"/></g><g transform="matrix(1.3333 0 0 -1.3333 153.73 158.92)"><path d="m0 0c0-0.423-0.124-0.787-0.373-1.09-0.248-0.304-0.694-0.456-1.339-0.456-1.179 0-1.767 0.515-1.767 1.546v14.664h-4.198c-0.479 0-0.82 0.152-1.022 0.456s-0.303 0.676-0.303 1.118 0.105 0.815 0.317 1.119c0.211 0.304 0.529 0.456 0.953 0.456h12.178c0.424 0 0.741-0.149 0.953-0.443s0.318-0.662 0.318-1.105c0-0.441-0.097-0.819-0.291-1.131-0.193-0.314-0.538-0.47-1.035-0.47h-4.391z" fill="#2b2b2a"/></g></g></svg>
